<svg xmlns="http://www.w3.org/2000/svg" viewBox="0 0 149.31 26.11"><defs><style>.cls-1{fill:#968d00;}.cls-1,.cls-2,.cls-3{fill-rule:evenodd;}.cls-2{fill:#fff200;}.cls-3,.cls-4{fill:#231f20;}</style></defs><title>vt.tv.brAtivo 2</title><g id="Camada_2" data-name="Camada 2"><g id="Camada_1-2" data-name="Camada 1"><path class="cls-1" d="M26.7,13.06A13.2,13.2,0,0,1,13.35,26.11,13.2,13.2,0,0,1,0,13.06,13.21,13.21,0,0,1,13.35,0,13.21,13.21,0,0,1,26.7,13.06Z"/><path class="cls-2" d="M26,13.06a12.55,12.55,0,0,1-12.69,12.4A12.55,12.55,0,0,1,.66,13.06,12.55,12.55,0,0,1,13.35.65,12.55,12.55,0,0,1,26,13.06Z"/><path class="cls-1" d="M18.29,8.7l2.17,6.21,2.62.83,2.24-1.42c0-.42.07-.84.07-1.26a11.7,11.7,0,0,0-5.26-9.73l.78,2.4-2.62,3Z"/><path class="cls-1" d="M20.21,15.65l-6.46,4.59V22.9l1.94,1.7a12,12,0,0,0,8.12-5.73l-1-2.4-2.61-.82Z"/><path class="cls-1" d="M12,24.75a11.69,11.69,0,0,0,1.32.08,11.41,11.41,0,0,0,1.32-.08l-1.32-1.16L12,24.75Z"/><polygon class="cls-3" points="9.13 9.06 7.03 15.06 13.35 19.56 19.68 15.06 17.57 9.06 9.13 9.06 9.13 9.06"/><path class="cls-3" d="M6.58,3.33a11.71,11.71,0,0,0-2.31,2l1.67-.07.64-1.94Z"/><path class="cls-3" d="M7.62,2.71c-.54,1.64-.9,2.75-.94,2.84L9.09,8.28h8.52L20,5.55l-.94-2.84a12.27,12.27,0,0,0-11.46,0Z"/><path class="cls-3" d="M6.24,14.91,8.41,8.7,6.06,6l-2.45.11a11.56,11.56,0,0,0-2.29,6.91,10.64,10.64,0,0,0,.07,1.26l2.23,1.42,2.62-.83Z"/><path class="cls-3" d="M24.29,18a11.77,11.77,0,0,0,.87-2.61l-1.54,1c.07.16.33.81.67,1.63Z"/><path class="cls-3" d="M1.55,15.35A11.26,11.26,0,0,0,2.41,18c.34-.82.61-1.47.67-1.63l-1.53-1Z"/><path class="cls-3" d="M13,20.24,6.49,15.65l-2.61.82-1,2.4A12,12,0,0,0,11,24.6L13,22.9V20.24Z"/><path class="cls-4" d="M37.57,21.78,31.29,7.57h6.22l3,9.51,3.17-9.51h6.16L43.31,21.78Z"/><path class="cls-4" d="M54.16,21.78V11.17H49V7.57h15.8v3.6H59.67V21.78Z"/><path class="cls-4" d="M64.45,21.78V17.24h5.16v4.54Z"/><path class="cls-4" d="M76.91,21.78V11.17H71.77V7.57H87.58v3.6H82.42V21.78Z"/><path class="cls-4" d="M93,21.78,86.75,7.57H93l3,9.51,3.17-9.51h6.16L98.77,21.78Z"/><path class="cls-4" d="M103.3,21.78V17.24h5.16v4.54Z"/><path class="cls-4" d="M123.58,7.57a8,8,0,0,1,4.21.82A3,3,0,0,1,129,11.12a3.45,3.45,0,0,1-.48,1.83,3.52,3.52,0,0,1-1.41,1.28A3.49,3.49,0,0,1,129,15.51a3.8,3.8,0,0,1,.62,2.22,3.58,3.58,0,0,1-1.33,3,6.54,6.54,0,0,1-4,1H112.14V7.57Zm-5.93,3.33v2h3.7a3.58,3.58,0,0,0,1.55-.21.85.85,0,0,0,.36-.79.88.88,0,0,0-.33-.79,3.59,3.59,0,0,0-1.58-.21Zm0,7.34h3.9a3.9,3.9,0,0,0,1.74-.25,1,1,0,0,0,.4-.91,1,1,0,0,0-.41-.92,3.78,3.78,0,0,0-1.73-.26h-3.9Z"/><path class="cls-4" d="M142.77,7.57a19.4,19.4,0,0,1,3,.18,5,5,0,0,1,1.74.55,3.28,3.28,0,0,1,1.22,1.26,3.86,3.86,0,0,1,.41,1.83,4,4,0,0,1-.62,2.22A3.5,3.5,0,0,1,146.77,15a2.81,2.81,0,0,1,1.32,1,4.51,4.51,0,0,1,.45,2.06c0,.1,0,.25,0,.45.09,1.85.34,2.89.75,3.09v.22h-6.12a3.8,3.8,0,0,1-.31-1.75c0-.5,0-.89-.07-1.17a1.47,1.47,0,0,0-.52-1.09,2.5,2.5,0,0,0-1.47-.32h-3.28v4.33H132V7.57Zm-5.23,6.14h3.21a3.77,3.77,0,0,0,1.77-.3,1.06,1.06,0,0,0,.51-1,1,1,0,0,0-.48-1,4.55,4.55,0,0,0-1.94-.28h-3.07Z"/></g></g></svg>