<svg xmlns="http://www.w3.org/2000/svg" viewBox="0 0 149.9 26.42"><defs><style>.cls-1{fill:#968d00;}.cls-1,.cls-2,.cls-3{fill-rule:evenodd;}.cls-2{fill:#fff200;}.cls-3,.cls-4{fill:#231f20;}.cls-4{font-size:19.68px;font-family:Swiss721BT-BlackExtended, Swis721 BlkEx BT;}.cls-5{letter-spacing:-0.13em;}.cls-6{letter-spacing:-0.17em;}</style></defs><title>ouzAtivo 1</title><g id="Camada_2" data-name="Camada 2"><g id="Camada_1-2" data-name="Camada 1"><path class="cls-1" d="M26.7,13.06A13.2,13.2,0,0,1,13.35,26.11,13.2,13.2,0,0,1,0,13.06,13.21,13.21,0,0,1,13.35,0,13.21,13.21,0,0,1,26.7,13.06Z"/><path class="cls-2" d="M26,13.06a12.55,12.55,0,0,1-12.69,12.4A12.55,12.55,0,0,1,.66,13.06,12.55,12.55,0,0,1,13.35.65,12.55,12.55,0,0,1,26,13.06Z"/><path class="cls-1" d="M18.29,8.7l2.17,6.21,2.62.83,2.24-1.42c0-.42.07-.84.07-1.26a11.7,11.7,0,0,0-5.26-9.73l.78,2.4-2.62,3Z"/><path class="cls-1" d="M20.21,15.65l-6.46,4.59V22.9l1.94,1.7a12,12,0,0,0,8.12-5.73l-1-2.4-2.61-.82Z"/><path class="cls-1" d="M12,24.75a11.69,11.69,0,0,0,1.32.08,11.41,11.41,0,0,0,1.32-.08l-1.32-1.16L12,24.75Z"/><polygon class="cls-3" points="9.13 9.06 7.03 15.06 13.35 19.56 19.68 15.06 17.57 9.06 9.13 9.06 9.13 9.06"/><path class="cls-3" d="M6.58,3.33a11.71,11.71,0,0,0-2.31,2l1.67-.07.64-1.94Z"/><path class="cls-3" d="M7.62,2.71c-.54,1.64-.9,2.75-.94,2.84L9.09,8.28h8.52L20,5.55l-.94-2.84a12.27,12.27,0,0,0-11.46,0Z"/><path class="cls-3" d="M6.24,14.91,8.41,8.7,6.06,6l-2.45.11a11.56,11.56,0,0,0-2.29,6.91,10.64,10.64,0,0,0,.07,1.26l2.23,1.42,2.62-.83Z"/><path class="cls-3" d="M24.29,18a11.77,11.77,0,0,0,.87-2.61l-1.54,1c.07.16.33.81.67,1.63Z"/><path class="cls-3" d="M1.55,15.35A11.26,11.26,0,0,0,2.41,18c.34-.82.61-1.47.67-1.63l-1.53-1Z"/><path class="cls-3" d="M13,20.24,6.49,15.65l-2.61.82-1,2.4A12,12,0,0,0,11,24.6L13,22.9V20.24Z"/><text class="cls-4" transform="translate(32.16 21.78)">V<tspan class="cls-5" x="16.82" y="0">T</tspan><tspan x="30.17" y="0">.T</tspan><tspan class="cls-6" x="55.46" y="0">V</tspan><tspan x="69.02" y="0">.BR</tspan></text></g></g></svg>