<svg xmlns="http://www.w3.org/2000/svg" viewBox="0 0 32 32"><defs><style>.cls-1,.cls-3,.cls-4{fill:none;}.cls-2{fill:#fff;}.cls-2,.cls-3{stroke:#366d31;stroke-width:0.36px;}.cls-2,.cls-3,.cls-4{stroke-miterlimit:2.61;}.cls-2,.cls-5{fill-rule:evenodd;}.cls-4{stroke:#008946;stroke-width:0.03px;}.cls-5{fill:#366d31;}.cls-6{fill:#f1b21d;}.cls-7{fill:#ffcf32;}.cls-8{fill:#bc845e;}.cls-9{fill:#916241;}.cls-10{fill:#ce9c7a;}</style></defs><title>ouzAtivo 1</title><g id="Camada_2" data-name="Camada 2"><g id="Camada_1-2" data-name="Camada 1"><rect class="cls-1" width="32" height="32"/><path class="cls-2" d="M12.36,4.54A11.29,11.29,0,1,0,23.64,15.83,11.29,11.29,0,0,0,12.36,4.54Z"/><path class="cls-3" d="M12.36,9.07a6.76,6.76,0,1,0,6.76,6.76,6.76,6.76,0,0,0-6.76-6.76"/><path class="cls-4" d="M10.69,21.38a5.8,5.8,0,0,1,0-11.1"/><path class="cls-5" d="M13.66,10.19a5.57,5.57,0,0,0-1.3-.15,5.49,5.49,0,0,0-1.08.1V21.53a6.38,6.38,0,0,0,1.08.1V16.25h1.3v-1.2h-1.3V11.24a5.09,5.09,0,0,1,1.3.17V10.19Z"/><path class="cls-5" d="M10.68,21.39a5.8,5.8,0,0,1,0-11.11v1.31a4.56,4.56,0,0,0-.88,8.05V17H9.07V15.74h1.61v5.65Z"/><path class="cls-5" d="M17.56,13.28a5.8,5.8,0,0,0-2.69-2.67V21.05a5.81,5.81,0,0,0,3-3.4l-1-.5a4.7,4.7,0,0,1-1,1.6V12.91a4.62,4.62,0,0,1,.74,1l.93-.6Z"/><path class="cls-5" d="M3.43,14.72l.11-.9L4.92,14l0,.18-.34,0a.83.83,0,0,1,.32.73.77.77,0,0,1-.37.59,1.63,1.63,0,0,1-1.13.18c-.63-.07-1.3-.46-1.22-1.13a.89.89,0,0,1,1-.76l0,.27a.6.6,0,0,0-.62.54c-.05.37.29.72,1,.8s1.08,0,1.15-.55a.58.58,0,0,0-.11-.44,1,1,0,0,0-.66-.31l-.08.64-.3,0Z"/><path class="cls-5" d="M3.2,11.24l1.57.64A.85.85,0,0,1,5.36,13a.81.81,0,0,1-1.16.38l-1.61-.65.11-.26,1.52.61c.52.22.77,0,.86-.21s.07-.56-.46-.77L3.1,11.5l.1-.26Z"/><path class="cls-5" d="M5.07,11.11l-.74-.93h0l1.11.41-.37.53Zm.69-.43.73.27.18-.25L4.11,9.81l-.18.26L5.61,12.2,5.77,12l-.49-.61.48-.68Z"/><path class="cls-5" d="M5.48,8.69,6,8.23c.1-.09.3-.21.56.09s.14.48,0,.61l-.48.43-.58-.67Zm.77.89.51-.44c.25-.22.44-.05.58.11a5.21,5.21,0,0,0,.47.46l.26-.23,0,0c-.11,0-.15,0-.25-.13L7.46,9c-.25-.27-.38-.24-.51-.21a.67.67,0,0,0-.19-.66.62.62,0,0,0-1-.08l-.72.62,1.71,2L7,10.42l-.74-.84Z"/><path class="cls-5" d="M8.1,8.27,7.87,7.1h0L8.67,8l-.57.3Zm.8-.07.53.58.27-.14-1.85-2-.28.15.5,2.66.25-.13-.15-.77L8.9,8.2Z"/><polygon class="cls-5" points="10.54 5.77 10.8 5.71 11.4 8.24 11.09 8.31 9.59 6.51 9.59 6.51 10.07 8.56 9.8 8.62 9.21 6.09 9.53 6.01 11.01 7.82 11.02 7.82 10.54 5.77 10.54 5.77"/><polygon class="cls-5" points="12.05 8.23 11.77 8.25 11.62 5.65 11.9 5.63 12.05 8.23 12.05 8.23"/><polygon class="cls-5" points="13.52 8.31 13.24 8.25 13.76 5.7 15.15 5.98 15.09 6.29 13.97 6.06 13.81 6.84 14.8 7.04 14.74 7.35 13.75 7.15 13.52 8.31 13.52 8.31"/><polygon class="cls-5" points="14.77 8.62 14.48 8.53 14.6 8.16 14.88 8.25 14.77 8.62 14.77 8.62"/><path class="cls-5" d="M17.87,8.16a.56.56,0,0,0-.21-.76c-.32-.2-.75-.06-1.12.52s-.42,1,0,1.28c.15.09.48.16.88-.3l.23.14c-.62.78-1.18.48-1.31.4-.4-.25-.58-.82-.06-1.67.43-.68,1-1,1.54-.64a.85.85,0,0,1,.26,1.17l-.22-.14Z"/><polygon class="cls-5" points="17.7 9.98 18.44 10.71 18.23 10.94 17.28 10.01 19.11 8.16 19.31 8.35 17.7 9.98 17.7 9.98"/><path class="cls-5" d="M21.39,11,20,11.92a.85.85,0,0,1-1.27-.17.82.82,0,0,1,.36-1.17l1.46-.94.15.24-1.38.88c-.48.31-.46.62-.33.83s.42.38.9.07l1.38-.89.15.24Z"/><path class="cls-5" d="M21.59,12.19l.16.48c.1.3,0,.45-.22.53a.37.37,0,0,1-.54-.27l-.16-.48.76-.26Zm-2.27.48.28.84a.71.71,0,0,0,1,.42.62.62,0,0,0,.48-.56.62.62,0,0,0,.6.09.59.59,0,0,0,.43-.77l-.29-.86-2.46.84Zm1.24-.12.17.51a.41.41,0,0,1-.26.6.42.42,0,0,1-.59-.26l-.19-.56.87-.29Z"/><polygon class="cls-5" points="20.01 15.9 19.86 14.39 22.45 14.14 22.59 15.64 22.28 15.67 22.17 14.45 21.37 14.53 21.48 15.65 21.17 15.68 21.06 14.55 20.2 14.64 20.32 15.88 20.01 15.9 20.01 15.9"/><path class="cls-5" d="M4.71,19.75A.56.56,0,0,0,5,19c-.14-.35-.58-.49-1.21-.22s-.93.58-.73,1.05c.07.16.29.41.89.26l.1.25c-1,.28-1.23-.29-1.29-.43-.19-.43,0-1,.91-1.39.74-.32,1.39-.2,1.62.35A.85.85,0,0,1,4.82,20l-.11-.24Z"/><path class="cls-5" d="M4.65,21.08l1.12-.41h0L5,21.6l-.38-.52Zm.19.78-.49.61.18.25,1.66-2.14L6,20.32l-2.55.92.17.23.73-.28.49.67Z"/><path class="cls-5" d="M6.34,24.32l1-1.18.42-.5h0L5.89,24l-.21-.18.93-2.05h0l-.41.51-1,1.18L5,23.24l1.65-2,.31.25L6,23.56H6l1.85-1.33.31.25-1.65,2-.21-.17Z"/><path class="cls-5" d="M8.56,23l.52.24a.37.37,0,0,1,.18.57c-.14.32-.35.35-.57.25l-.51-.24L8.56,23Zm-.5,1.09.59.28c.4.19.72-.12.88-.44A.65.65,0,0,0,9.28,23l-.84-.4L7.34,25l.26.12.46-1Z"/><polygon class="cls-5" points="9.68 25.87 9.41 25.79 10.12 23.29 10.38 23.36 9.68 25.87 9.68 25.87"/><polygon class="cls-5" points="12.09 23.63 12.36 23.66 12.09 26.24 11.78 26.21 10.95 24.01 10.95 24.01 10.73 26.1 10.46 26.07 10.73 23.49 11.06 23.52 11.87 25.72 11.87 25.72 12.09 23.63 12.09 23.63"/><path class="cls-5" d="M13.23,25.11l.18-1.18h0l.45,1.1-.64.08Zm.77.22.3.72.3,0-1.07-2.48-.31,0-.44,2.68.29,0,.12-.78.81-.1Z"/><path class="cls-5" d="M15.79,23.67a.48.48,0,0,0-.66-.31.42.42,0,0,0-.29.59.31.31,0,0,0,.35.22l.61,0a.65.65,0,0,1,.68.49.73.73,0,0,1-.49,1,.73.73,0,0,1-.67,0,.92.92,0,0,1-.42-.55l.24-.09a.54.54,0,0,0,.74.37c.19-.07.49-.24.36-.59s-.22-.31-.57-.28l-.44,0a.57.57,0,0,1-.62-.43.71.71,0,0,1,.38-1,.75.75,0,0,1,1,.5l-.24.09Z"/><path class="cls-5" d="M18.87,23.92l-.21.17-1.11-1.44-.37.29-.15-.2c.24-.22.32-.34.13-.72l.16-.12,1.55,2Z"/><path class="cls-5" d="M19.26,22c-.12.12-.32.26-.69-.06s-.32-.5-.16-.68.46-.13.67.06c.38.34.27.58.18.68Zm.19.21a.51.51,0,0,0,.08-.54h0c.45.48.57.79.38,1s-.33.14-.53,0l-.17.19a.62.62,0,0,0,.91,0c.46-.51-.39-1.32-.59-1.5s-.92-.73-1.35-.25c-.28.31-.13.75.22,1.06s.79.35,1,.07Z"/><path class="cls-5" d="M21.38,21l-.14.23-1.54-.93-.25.41-.21-.14c.14-.29.17-.43-.14-.71l.1-.17L21.38,21Z"/><path class="cls-5" d="M22.19,19.19l-.1.26-1.69-.63-.17.45L20,19.18c.08-.32.09-.46-.27-.68l.07-.18,2.39.87Z"/><path class="cls-5" d="M3.52,17.46a.36.36,0,1,0-.36-.36.36.36,0,0,0,.36.36Z"/><path class="cls-5" d="M21.49,17.46a.36.36,0,1,0-.36-.36.36.36,0,0,0,.36.36Z"/><path class="cls-6" d="M17.16,19.32a1,1,0,0,1-.44-.1c-.37-.19-.8-.7-.8-2a6.87,6.87,0,0,0-1.52-4.48l-.25-.27L15.48,11l.23.34a1.81,1.81,0,0,0,1.84.76l.15.72a2.28,2.28,0,0,1-2.27-.72l-.34.37a7.85,7.85,0,0,1,1.49,4.74c0,.73.15,1.23.42,1.37s.49,0,.77-.29A7.5,7.5,0,0,0,19,15.7l.63.24a8.1,8.1,0,0,1-1.46,2.87A1.55,1.55,0,0,1,17.16,19.32Z"/><path class="cls-6" d="M28,19.32a.91.91,0,0,0,.43-.1c.37-.19.81-.7.81-2a7,7,0,0,1,1.51-4.48l.25-.27L29.7,11l-.23.34a1.79,1.79,0,0,1-1.83.76l-.16.72a2.26,2.26,0,0,0,2.27-.72l.34.37a7.92,7.92,0,0,0-1.49,4.74c0,.73-.15,1.23-.41,1.37s-.5,0-.78-.29a7.92,7.92,0,0,1-1.27-2.55l-.63.24A8.48,8.48,0,0,0,27,18.81,1.57,1.57,0,0,0,28,19.32Z"/><rect class="cls-6" x="21.73" y="17.41" width="1.72" height="6.89"/><rect class="cls-7" x="22.09" y="17.41" width="1.01" height="6.89"/><path class="cls-6" d="M16.92,11c.48,4.33,2.84,7.8,5.67,7.8s5.2-3.47,5.68-7.8Z"/><path class="cls-7" d="M18,11c.39,4.38,2.29,7.89,4.58,7.89s4.19-3.51,4.58-7.89Z"/><path class="cls-6" d="M27,25.59H18.19s2-2.54,4.4-2.54S27,25.59,27,25.59Z"/><path class="cls-7" d="M25.93,25.59H19.25S20.75,23,22.59,23,25.93,25.59,25.93,25.59Z"/><rect class="cls-8" x="16.91" y="26.15" width="11.36" height="1.69"/><rect class="cls-9" x="18.19" y="25.59" width="8.81" height="0.56"/><rect class="cls-6" x="19.78" y="26.58" width="5.63" height="0.84"/><rect class="cls-10" x="16.91" y="26.15" width="0.56" height="1.69"/><rect class="cls-9" x="27.71" y="26.15" width="0.56" height="1.69"/><rect class="cls-7" x="20.06" y="26.58" width="5.07" height="0.84"/></g></g></svg>