<svg xmlns="http://www.w3.org/2000/svg" viewBox="0 0 4.63 4.63"><defs><style>.cls-1{fill:#366d31;fill-rule:evenodd;}</style></defs><title>gfc106Ativo 5</title><g id="Camada_2" data-name="Camada 2"><g id="Camada_1-2" data-name="Camada 1"><path class="cls-1" d="M2.59,2.29a.44.44,0,0,0-.16-.06.55.55,0,0,0-.18,0,1,1,0,0,0-.25,0,.89.89,0,0,0-.23.1s0,0,0,.06v.08a1.27,1.27,0,0,0,.05.39A.64.64,0,0,0,2,3.1a.54.54,0,0,0,.16.1.48.48,0,0,0,.18,0,.45.45,0,0,0,.35-.14.54.54,0,0,0,.13-.4.53.53,0,0,0,0-.23A.46.46,0,0,0,2.59,2.29Z"/><path class="cls-1" d="M2.31,0A2.32,2.32,0,1,0,4.63,2.31,2.32,2.32,0,0,0,2.31,0Zm.54,3.26a.77.77,0,0,1-.57.22.81.81,0,0,1-.31,0,.78.78,0,0,1-.24-.16.82.82,0,0,1-.21-.34,1.53,1.53,0,0,1-.07-.51,2.26,2.26,0,0,1,.06-.55,1.38,1.38,0,0,1,.21-.42.92.92,0,0,1,.36-.28,1.27,1.27,0,0,1,.5-.1h.16l.12,0v.3h0l-.14,0-.17,0A.7.7,0,0,0,2,1.55a.93.93,0,0,0-.23.57A.76.76,0,0,1,2,2,.84.84,0,0,1,2.32,2a1,1,0,0,1,.26,0,.8.8,0,0,1,.23.11A.61.61,0,0,1,3,2.33a.91.91,0,0,1,.07.35A.75.75,0,0,1,2.85,3.26Z"/></g></g></svg>