<svg xmlns="http://www.w3.org/2000/svg" viewBox="0 0 4.63 4.63"><defs><style>.cls-1{fill:#366d31;fill-rule:evenodd;}</style></defs><title>gfc108Ativo 5</title><g id="Camada_2" data-name="Camada 2"><g id="Camada_1-2" data-name="Camada 1"><path class="cls-1" d="M2.22,2l.16.07.21.07a.5.5,0,0,0,.22-.21.51.51,0,0,0,.06-.25.34.34,0,0,0-.13-.27.52.52,0,0,0-.33-.1.47.47,0,0,0-.32.1A.3.3,0,0,0,2,1.64.26.26,0,0,0,2,1.83.51.51,0,0,0,2.22,2Z"/><path class="cls-1" d="M2.6,2.41l-.16-.06-.23-.08A.56.56,0,0,0,2,2.48a.48.48,0,0,0-.09.29.45.45,0,0,0,.15.35.51.51,0,0,0,.37.13.52.52,0,0,0,.36-.11.42.42,0,0,0,.14-.32.39.39,0,0,0-.07-.23A.59.59,0,0,0,2.6,2.41Z"/><path class="cls-1" d="M2.31,0A2.32,2.32,0,1,0,4.63,2.31,2.32,2.32,0,0,0,2.31,0ZM3,3.29a.88.88,0,0,1-.59.2.89.89,0,0,1-.6-.2.62.62,0,0,1-.22-.5.66.66,0,0,1,.11-.35A.8.8,0,0,1,2,2.2H2A.83.83,0,0,1,1.74,2a.49.49,0,0,1-.09-.3.51.51,0,0,1,.22-.43.8.8,0,0,1,.54-.18A.89.89,0,0,1,3,1.23a.53.53,0,0,1,.2.42A.59.59,0,0,1,3.08,2a.76.76,0,0,1-.29.24h0a.92.92,0,0,1,.33.23.51.51,0,0,1,.12.35A.63.63,0,0,1,3,3.29Z"/></g></g></svg>