<svg xmlns="http://www.w3.org/2000/svg" viewBox="0 0 4.63 4.63"><defs><style>.cls-1{fill:#366d31;fill-rule:evenodd;}</style></defs><title>gfc10Ativo 5</title><g id="Camada_2" data-name="Camada 2"><g id="Camada_1-2" data-name="Camada 1"><path class="cls-1" d="M3.52,1.61a.38.38,0,0,0-.15-.18.43.43,0,0,0-.24-.06.43.43,0,0,0-.24.06.34.34,0,0,0-.15.18,1.08,1.08,0,0,0-.08.3c0,.13,0,.26,0,.41s0,.3,0,.41A1.37,1.37,0,0,0,2.73,3a.45.45,0,0,0,.15.18.39.39,0,0,0,.25.07.43.43,0,0,0,.24-.06A.36.36,0,0,0,3.52,3a1.11,1.11,0,0,0,.08-.29c0-.12,0-.25,0-.41s0-.3,0-.41A1.08,1.08,0,0,0,3.52,1.61Z"/><path class="cls-1" d="M2.31,0A2.32,2.32,0,1,0,4.63,2.31,2.32,2.32,0,0,0,2.31,0ZM2.09,3.48H.84V3.24h.48V1.69H.84V1.47h.21a.49.49,0,0,0,.17-.05.27.27,0,0,0,.11-.1.25.25,0,0,0,0-.16h.24V3.24h.47Zm1.65-.25a.68.68,0,0,1-.61.29.66.66,0,0,1-.61-.29,1.69,1.69,0,0,1-.19-.91,1.67,1.67,0,0,1,.19-.91.68.68,0,0,1,.61-.3.67.67,0,0,1,.61.3,1.69,1.69,0,0,1,.19.91A1.67,1.67,0,0,1,3.74,3.23Z"/></g></g></svg>