<svg xmlns="http://www.w3.org/2000/svg" viewBox="0 0 4.63 4.63"><defs><style>.cls-1{fill:#366d31;fill-rule:evenodd;}</style></defs><title>gfc102Ativo 5</title><g id="Camada_2" data-name="Camada 2"><g id="Camada_1-2" data-name="Camada 1"><path class="cls-1" d="M2.31,0A2.32,2.32,0,1,0,4.63,2.31,2.32,2.32,0,0,0,2.31,0Zm.78,3.48H1.52V3.15l.33-.28.31-.28a3.39,3.39,0,0,0,.41-.46.67.67,0,0,0,.11-.37.35.35,0,0,0-.12-.28.48.48,0,0,0-.33-.1,1.18,1.18,0,0,0-.31.05,1,1,0,0,0-.32.15h0V1.25a2.08,2.08,0,0,1,.3-.1,1.45,1.45,0,0,1,.35,0,.85.85,0,0,1,.56.17A.58.58,0,0,1,3,1.75.61.61,0,0,1,3,2a.62.62,0,0,1-.1.22.85.85,0,0,1-.14.19l-.2.21-.34.32-.33.28H3.09Z"/></g></g></svg>