<svg xmlns="http://www.w3.org/2000/svg" viewBox="0 0 4.63 4.63"><defs><style>.cls-1{fill:#366d31;fill-rule:evenodd;}</style></defs><title>gfc109Ativo 5</title><g id="Camada_2" data-name="Camada 2"><g id="Camada_1-2" data-name="Camada 1"><path class="cls-1" d="M2.71,1.45a.49.49,0,0,0-.15-.1.58.58,0,0,0-.19,0A.48.48,0,0,0,2,1.46a.57.57,0,0,0-.13.4.55.55,0,0,0,0,.24.52.52,0,0,0,.14.16.46.46,0,0,0,.16.07h.19a1,1,0,0,0,.24,0,.67.67,0,0,0,.23-.1.13.13,0,0,0,0-.06V2.07a1.37,1.37,0,0,0,0-.39A.53.53,0,0,0,2.71,1.45Z"/><path class="cls-1" d="M2.31,0A2.32,2.32,0,1,0,4.63,2.31,2.32,2.32,0,0,0,2.31,0Zm.84,2.69a1.38,1.38,0,0,1-.21.42,1,1,0,0,1-.36.27,1.12,1.12,0,0,1-.5.1H1.93a.5.5,0,0,1-.13,0V3.15h0l.12,0,.19,0A.73.73,0,0,0,2.67,3a.92.92,0,0,0,.22-.57,1.07,1.07,0,0,1-.27.12.82.82,0,0,1-.28,0,1.09,1.09,0,0,1-.26,0,.68.68,0,0,1-.23-.11.61.61,0,0,1-.21-.24.91.91,0,0,1-.07-.35.75.75,0,0,1,.24-.58.77.77,0,0,1,.57-.22,1.06,1.06,0,0,1,.31.05.82.82,0,0,1,.25.16.68.68,0,0,1,.2.33,1.56,1.56,0,0,1,.08.53A2.36,2.36,0,0,1,3.15,2.69Z"/></g></g></svg>