<svg xmlns="http://www.w3.org/2000/svg" viewBox="0 0 4.63 4.63"><defs><style>.cls-1{fill:#366d31;fill-rule:evenodd;}</style></defs><title>gfc111Ativo 5</title><g id="Camada_2" data-name="Camada 2"><g id="Camada_1-2" data-name="Camada 1"><path class="cls-1" d="M2.31,0A2.32,2.32,0,1,0,4.63,2.31,2.32,2.32,0,0,0,2.31,0ZM2.23,3.43H1V3.2h.48V1.64H1V1.43h.21l.17,0a.52.52,0,0,0,.11-.1.34.34,0,0,0,.05-.16h.24V3.2h.47Zm1.71,0H2.69V3.2h.48V1.64H2.69V1.43H2.9a.76.76,0,0,0,.16,0,.4.4,0,0,0,.12-.1.34.34,0,0,0,0-.16h.24V3.2h.47Z"/></g></g></svg>