<svg xmlns="http://www.w3.org/2000/svg" viewBox="0 0 4.63 4.63"><defs><style>.cls-1{fill:#366d31;fill-rule:evenodd;}</style></defs><title>gfc105Ativo 5</title><g id="Camada_2" data-name="Camada 2"><g id="Camada_1-2" data-name="Camada 1"><path class="cls-1" d="M2.31,0A2.32,2.32,0,1,0,4.63,2.31,2.32,2.32,0,0,0,2.31,0ZM3,3a.74.74,0,0,1-.17.25.63.63,0,0,1-.26.16,1,1,0,0,1-.36.06,1.5,1.5,0,0,1-.37,0,1.79,1.79,0,0,1-.3-.09V3h0a1.4,1.4,0,0,0,.3.14,1.26,1.26,0,0,0,.33,0,.78.78,0,0,0,.22,0,.38.38,0,0,0,.18-.11.29.29,0,0,0,.1-.16.46.46,0,0,0,0-.21.46.46,0,0,0,0-.21.49.49,0,0,0-.12-.13.41.41,0,0,0-.19-.08,1.09,1.09,0,0,0-.26,0l-.27,0-.22,0V1.12H3v.27H1.92V2h.26a1.55,1.55,0,0,1,.33,0,.77.77,0,0,1,.26.12.53.53,0,0,1,.2.22A.83.83,0,0,1,3,2.7.81.81,0,0,1,3,3Z"/></g></g></svg>