<svg xmlns="http://www.w3.org/2000/svg" viewBox="0 0 4.63 4.63"><defs><style>.cls-1{fill:#366d31;fill-rule:evenodd;}</style></defs><title>gfc10Ativo 5</title><g id="Camada_2" data-name="Camada 2"><g id="Camada_1-2" data-name="Camada 1"><path class="cls-1" d="M2.31,0A2.32,2.32,0,1,0,4.63,2.31,2.32,2.32,0,0,0,2.31,0ZM3,3.08a.53.53,0,0,1-.16.23.74.74,0,0,1-.27.16,1,1,0,0,1-.35,0,1.64,1.64,0,0,1-.38,0l-.31-.1V3.05h0a1.28,1.28,0,0,0,.31.15,1,1,0,0,0,.34,0,.76.76,0,0,0,.21,0,.38.38,0,0,0,.18-.09A.42.42,0,0,0,2.71,3a.56.56,0,0,0,0-.2.41.41,0,0,0,0-.21.24.24,0,0,0-.11-.13.54.54,0,0,0-.17-.07H2.07V2.09h.11A.63.63,0,0,0,2.56,2,.34.34,0,0,0,2.7,1.7a.26.26,0,0,0,0-.15.32.32,0,0,0-.1-.1.35.35,0,0,0-.14-.06H2.25a1.25,1.25,0,0,0-.32.05,1.77,1.77,0,0,0-.31.15h0V1.26a1.16,1.16,0,0,1,.3-.1,1.1,1.1,0,0,1,.35,0,1.26,1.26,0,0,1,.3,0,.64.64,0,0,1,.24.1A.58.58,0,0,1,3,1.42a.62.62,0,0,1,0,.25A.44.44,0,0,1,2.88,2a.63.63,0,0,1-.32.19v0l.17,0a.62.62,0,0,1,.16.1A.43.43,0,0,1,3,2.53a.48.48,0,0,1,.05.26A.68.68,0,0,1,3,3.08Z"/></g></g></svg>