<svg xmlns="http://www.w3.org/2000/svg" viewBox="0 0 11.31 11.59"><defs><style>.cls-1{fill:none;stroke:#008946;stroke-miterlimit:2.61;stroke-width:0.03px;}.cls-2{fill:#366d31;fill-rule:evenodd;}</style></defs><title>gfcAtivo 3</title><g id="Camada_2" data-name="Camada 2"><g id="Camada_1-2" data-name="Camada 1"><path class="cls-1" d="M4.15,11.35a5.79,5.79,0,0,1,0-11.1"/><path class="cls-2" d="M7.11.15A5.57,5.57,0,0,0,5.81,0,5.49,5.49,0,0,0,4.73.1V11.49a5.49,5.49,0,0,0,1.08.1V6.22h1.3V5H5.81V1.21a5.51,5.51,0,0,1,1.3.16V.15Z"/><path class="cls-2" d="M4.14,11.35a5.8,5.8,0,0,1,0-11.1v1.3A4.65,4.65,0,0,0,1.22,5.79a4.6,4.6,0,0,0,2,3.81V6.94H2.53V5.7H4.14v5.65Z"/><path class="cls-2" d="M11,3.24A5.8,5.8,0,0,0,8.32.57V11a5.82,5.82,0,0,0,3-3.39l-1-.5a4.87,4.87,0,0,1-1,1.6V2.87a4.93,4.93,0,0,1,.73,1l.93-.6Z"/></g></g></svg>